<svg width="25" height="25" viewBox="0 0 25 25" fill="none" xmlns="http://www.w3.org/2000/svg">
<path d="M21.875 11.4583V9.375H19.7917V7.29167C19.79 6.73964 19.57 6.21069 19.1797 5.82035C18.7893 5.43 18.2604 5.20998 17.7083 5.20833H15.625V3.125H13.5417V5.20833H11.4583V3.125H9.375V5.20833H7.29167C6.73964 5.20998 6.21069 5.43 5.82035 5.82035C5.43 6.21069 5.20998 6.73964 5.20833 7.29167V9.375H3.125V11.4583H5.20833V13.5417H3.125V15.625H5.20833V17.7083C5.20998 18.2604 5.43 18.7893 5.82035 19.1797C6.21069 19.57 6.73964 19.79 7.29167 19.7917H9.375V21.875H11.4583V19.7917H13.5417V21.875H15.625V19.7917H17.7083C18.2604 19.79 18.7893 19.57 19.1797 19.1797C19.57 18.7893 19.79 18.2604 19.7917 17.7083V15.625H21.875V13.5417H19.7917V11.4583H21.875ZM17.7083 17.7083H7.29167V7.29167H17.7083V17.7083Z" fill="#4AED9E"/>
<path d="M11.8344 8.3335H10.4333L8.3396 16.6668H9.40939L9.89272 14.7137H12.3052L12.7761 16.6668H13.8823L11.8344 8.3335ZM10.0333 13.8793L11.0938 9.32308H11.1417L12.1656 13.8793H10.0333ZM14.8375 8.3335H15.8792V16.6668H14.8375V8.3335Z" fill="#4AED9E"/>
</svg>
