<svg width="529" height="346" viewBox="0 0 529 346" fill="none" xmlns="http://www.w3.org/2000/svg">
<g clip-path="url(#clip0_476_3909)">
<path d="M529 334.877H0C5.79652 320.095 16.5012 307.556 31.5907 303.836C53.6632 298.4 77.0255 313.343 99.0503 307.725C111.564 304.536 121.415 295.243 131.767 287.527C170.82 258.41 224.339 249.806 270.549 265.215C294.704 273.267 316.716 287.348 341.461 293.336C373.458 301.078 406.92 294.658 439.824 293.6C471.869 292.567 517.787 305.625 529 334.877Z" fill="#F3F5FD"/>
<path d="M429.758 0H109.833V231.687H429.758V0Z" fill="#DEE8F5"/>
<path d="M429.758 0H109.833V19.0856H429.758V0Z" fill="#C1D8ED"/>
<path d="M419.042 14.3311C421.687 14.3311 423.831 12.1873 423.831 9.5427C423.831 6.89812 421.687 4.75427 419.042 4.75427C416.398 4.75427 414.254 6.89812 414.254 9.5427C414.254 12.1873 416.398 14.3311 419.042 14.3311Z" fill="white"/>
<path d="M314.878 31.5533H121.982V137.374H314.878V31.5533Z" fill="#0CBC8B"/>
<path d="M314.878 180.633H121.982V187.239H314.878V180.633Z" fill="white"/>
<path d="M314.878 147.98H121.982V154.585H314.878V147.98Z" fill="white"/>
<path d="M314.878 164.306H121.982V170.912H314.878V164.306Z" fill="white"/>
<path d="M255.738 198.962H184.214V217.908H255.738V198.962Z" fill="white"/>
<path d="M419.043 31.5533H326.703V118.314H419.043V31.5533Z" fill="white"/>
<path d="M419.043 131.148H326.703V217.908H419.043V131.148Z" fill="white"/>
<path d="M158.754 104.929L185.475 81.6761L215.755 104.929H158.754Z" fill="white"/>
<path d="M190.218 104.929L237.757 70.7886L273.553 104.929H190.218Z" fill="white"/>
<path d="M205.708 71.3794C208.971 71.3794 211.616 68.7341 211.616 65.4709C211.616 62.2077 208.971 59.5624 205.708 59.5624C202.445 59.5624 199.799 62.2077 199.799 65.4709C199.799 68.7341 202.445 71.3794 205.708 71.3794Z" fill="white"/>
<path d="M431.991 332.273C430.948 332.098 419.177 330.087 419.177 330.087L421.119 318.721C421.119 318.721 432.854 320.726 433.893 320.9L431.991 332.273Z" fill="#E98862"/>
<path d="M412.463 343.175C412.413 343.481 412.427 343.794 412.504 344.094C412.58 344.395 412.718 344.676 412.908 344.921C413.098 345.166 413.337 345.369 413.609 345.518C413.882 345.666 414.182 345.757 414.491 345.784C414.919 345.822 415.349 345.736 415.73 345.538C416.111 345.34 416.428 345.037 416.643 344.664L423.293 332.17C423.421 331.928 423.495 331.661 423.51 331.388C423.525 331.114 423.481 330.841 423.381 330.586C422.422 328.555 422.141 326.27 422.579 324.068C422.99 322.364 423.872 320.81 425.124 319.584C425.245 319.478 425.334 319.339 425.38 319.185C425.425 319.03 425.426 318.866 425.382 318.711C425.338 318.556 425.25 318.416 425.13 318.309C425.01 318.202 424.861 318.131 424.702 318.105L418.23 317.022C418.039 316.99 417.844 316.996 417.655 317.039C417.467 317.083 417.289 317.164 417.131 317.276C416.974 317.389 416.84 317.532 416.738 317.696C416.636 317.861 416.567 318.044 416.536 318.235L412.463 343.175Z" fill="#C1D8ED"/>
<path d="M468.423 301.532C473.307 301.735 478.282 301.878 483.256 302.001L490.733 302.165L498.2 302.3L498.944 302.313C502.028 302.371 504.976 303.596 507.192 305.742C509.409 307.887 510.729 310.793 510.888 313.874C511.047 316.954 510.031 319.981 508.047 322.342C506.062 324.704 503.256 326.225 500.194 326.6L426.399 335.56L423.393 313.751L496.858 302.41L498.852 326.71L491.27 327.2L483.693 327.658C478.633 327.95 473.572 328.224 468.419 328.436L468.423 301.532Z" fill="#262626"/>
<path d="M487.039 327.497C476.852 326.014 475.835 325.74 475.501 325.652L478.498 314.518C478.464 314.509 478.42 314.497 478.367 314.485C479.203 314.668 484.379 315.458 488.698 316.086L487.039 327.497Z" fill="#E98862"/>
<path d="M499.765 337.408C499.872 337.699 499.918 338.009 499.899 338.318C499.881 338.628 499.799 338.931 499.659 339.207C499.519 339.484 499.323 339.728 499.084 339.926C498.844 340.123 498.567 340.269 498.269 340.354C497.856 340.472 497.418 340.47 497.006 340.348C496.594 340.226 496.225 339.988 495.944 339.663L487.043 328.659C486.872 328.445 486.749 328.198 486.683 327.932C486.616 327.667 486.608 327.39 486.658 327.122C487.213 324.946 487.056 322.649 486.208 320.57C485.481 318.975 484.321 317.616 482.859 316.65C482.72 316.569 482.606 316.45 482.532 316.307C482.458 316.164 482.426 316.003 482.44 315.842C482.454 315.682 482.514 315.528 482.611 315.4C482.709 315.272 482.841 315.175 482.992 315.119L489.142 312.826C489.323 312.758 489.516 312.727 489.71 312.734C489.903 312.742 490.093 312.787 490.269 312.868C490.445 312.948 490.603 313.063 490.735 313.205C490.866 313.347 490.968 313.514 491.035 313.696L499.765 337.408Z" fill="#C1D8ED"/>
<path d="M452.038 326.459C448.946 326.196 445.855 326.006 442.765 325.828C439.674 325.663 436.584 325.499 433.495 325.389L428.86 325.21L424.227 325.077C421.138 324.974 418.05 324.931 414.962 324.873L416.032 302.685C421.813 303.494 427.602 304.236 433.389 304.997C439.176 305.759 444.97 306.459 450.762 307.172L459.456 308.196L468.156 309.172C473.958 309.795 479.761 310.415 485.578 310.925L483.025 332.795C477.248 331.952 471.458 331.219 465.668 330.489L456.977 329.434L448.281 328.43C442.48 327.789 436.68 327.139 430.876 326.545C425.071 325.952 419.264 325.343 413.452 324.799C410.665 324.537 408.08 323.232 406.213 321.146C404.347 319.059 403.337 316.345 403.385 313.546C403.434 310.747 404.538 308.07 406.475 306.05C408.413 304.029 411.042 302.815 413.837 302.65L414.524 302.611C417.608 302.43 420.692 302.266 423.774 302.041L428.399 301.724L433.022 301.363C436.105 301.131 439.186 300.843 442.268 300.557C445.349 300.257 448.43 299.945 451.509 299.56L452.038 326.459Z" fill="#262626"/>
<path d="M479.644 298.163L481.269 325.455L434.329 324.903L437.872 300.741L479.644 298.163Z" fill="#262626"/>
<path d="M406.926 247.122C406.926 247.122 406.843 240.528 402.129 240.871C399.156 241.087 385.025 240.432 384.815 241.718C384.295 244.903 397.22 245.681 398.392 248.649L406.926 247.122Z" fill="#E98862"/>
<path d="M466.366 245.991C466.366 245.991 461.95 244.094 461.95 232.494L453.075 231.59C453.075 231.59 454.904 241.84 450.75 245.481L466.366 245.991Z" fill="#E98862"/>
<g opacity="0.15">
<path d="M452.364 243.176L459.173 237.027L453.462 237.435C453.457 239.401 453.085 241.348 452.364 243.176Z" fill="black"/>
</g>
<path d="M466.543 227.62C466.225 231.165 464.589 234.632 461.597 236.014C458.345 237.624 454.749 238.413 451.122 238.314C441.486 238.314 441.595 216.397 445.792 211.794C449.99 207.191 463.545 208.778 465.747 215.715C466.887 219.306 466.848 224.245 466.543 227.62Z" fill="#E98862"/>
<path d="M452.568 226.052C453.007 226.052 453.364 225.696 453.364 225.256C453.364 224.817 453.007 224.461 452.568 224.461C452.129 224.461 451.772 224.817 451.772 225.256C451.772 225.696 452.129 226.052 452.568 226.052Z" fill="#0F1011"/>
<path d="M446.27 226.052C446.71 226.052 447.066 225.696 447.066 225.256C447.066 224.817 446.71 224.461 446.27 224.461C445.831 224.461 445.475 224.817 445.475 225.256C445.475 225.696 445.831 226.052 446.27 226.052Z" fill="#0F1011"/>
<path d="M444.727 223.68C444.632 223.679 444.54 223.641 444.472 223.575C444.403 223.509 444.363 223.419 444.358 223.324C444.354 223.229 444.386 223.135 444.448 223.063C444.51 222.991 444.597 222.945 444.692 222.934L446.79 222.736C446.84 222.729 446.891 222.733 446.939 222.746C446.988 222.76 447.033 222.783 447.072 222.814C447.112 222.846 447.144 222.885 447.168 222.929C447.192 222.973 447.207 223.022 447.212 223.072C447.216 223.122 447.211 223.172 447.196 223.22C447.18 223.268 447.156 223.312 447.123 223.351C447.09 223.389 447.05 223.42 447.005 223.442C446.96 223.464 446.911 223.477 446.86 223.48L444.762 223.678L444.727 223.68Z" fill="#0F1011"/>
<path d="M454.131 223.68C454.112 223.68 454.092 223.679 454.073 223.676L451.961 223.347C451.863 223.331 451.775 223.278 451.717 223.198C451.658 223.118 451.634 223.018 451.649 222.92C451.664 222.822 451.718 222.734 451.798 222.675C451.878 222.617 451.978 222.592 452.076 222.608L454.188 222.937C454.281 222.951 454.366 222.999 454.425 223.073C454.484 223.146 454.514 223.24 454.507 223.334C454.5 223.428 454.457 223.516 454.388 223.581C454.318 223.645 454.227 223.68 454.133 223.68H454.131Z" fill="#0F1011"/>
<path d="M452.713 231.531C452.713 231.531 449.811 232.08 447.701 231.531C447.701 231.531 447.875 233.458 450.207 233.458C452.539 233.458 452.713 231.531 452.713 231.531Z" fill="white"/>
<path d="M459.362 219.09C459.835 235.108 462.162 236.575 462.162 236.575C462.162 236.575 469.74 231.129 469.994 221.465C470.233 212.405 463.181 207.647 458.628 207.014C441.328 204.608 440.721 220.229 440.721 220.229C449.403 221.717 461.23 219.258 461.23 219.258" fill="#0F1011"/>
<path d="M456.852 226.859C456.863 227.746 457.223 228.592 457.854 229.216C458.486 229.839 459.337 230.188 460.224 230.188C461.111 230.188 461.963 229.839 462.594 229.216C463.225 228.592 463.586 227.746 463.597 226.859C463.604 226.414 463.522 225.972 463.356 225.559C463.189 225.146 462.941 224.772 462.626 224.457C462.311 224.142 461.937 223.894 461.524 223.727C461.111 223.56 460.669 223.478 460.224 223.486C457.822 223.604 456.852 224.996 456.852 226.859Z" fill="#E98862"/>
<path d="M467.64 221.465C471.887 221.465 475.33 218.022 475.33 213.775C475.33 209.528 471.887 206.085 467.64 206.085C463.393 206.085 459.95 209.528 459.95 213.775C459.95 218.022 463.393 221.465 467.64 221.465Z" fill="#0F1011"/>
<path d="M496.142 292.81L482.827 253.217C482.286 251.289 481.234 249.544 479.783 248.165C477.274 245.656 472.942 244.036 467.66 244.031C467.264 247.111 448.563 247.122 448.42 244.102C447.707 244.113 447.152 244.124 446.806 244.14C441.641 244.36 438.586 245.793 436.86 248.072L419.235 265.222L407.477 243.268L397.313 248.711L412.687 277.416C413.109 278.204 413.707 278.882 414.436 279.399C415.165 279.915 416.004 280.255 416.887 280.392C417.769 280.528 418.672 280.458 419.523 280.187C420.374 279.915 421.15 279.449 421.79 278.826L435.775 265.217C436.324 268.771 436.656 272.354 436.768 275.948C436.982 293.771 432.167 297.131 434.539 302.578C436.839 307.865 482.044 310.062 482.648 300.76C482.655 300.663 482.655 300.565 482.659 300.468L490.285 300.701C490.347 300.701 490.407 300.701 490.468 300.701C491.418 300.701 492.354 300.475 493.199 300.041C494.045 299.608 494.775 298.98 495.329 298.208C495.883 297.437 496.246 296.545 496.387 295.605C496.528 294.666 496.444 293.706 496.141 292.806L496.142 292.81ZM482.053 288.473L479.323 288.39C478.316 285.067 477.809 281.613 477.817 278.14C477.817 277.482 477.856 276.83 477.92 276.182L482.053 288.473Z" fill="#367CFF"/>
<path d="M448.42 244.104C448.563 247.124 450.205 251.566 455.273 251.901C462.026 252.345 467.264 247.113 467.66 244.032H467.643C460.994 244.032 452.297 244.043 448.42 244.104Z" fill="#E98862"/>
<path d="M464.029 259.191L465.969 288.115C465.992 288.456 465.944 288.798 465.829 289.12C465.715 289.442 465.535 289.737 465.302 289.987C465.068 290.236 464.786 290.435 464.473 290.571C464.159 290.707 463.821 290.778 463.479 290.778H423.08C422.463 290.778 421.868 290.549 421.409 290.135C420.951 289.722 420.662 289.153 420.598 288.539L417.609 259.615C417.573 259.267 417.61 258.916 417.719 258.584C417.827 258.252 418.004 257.946 418.238 257.687C418.472 257.428 418.758 257.22 419.077 257.078C419.396 256.936 419.741 256.863 420.091 256.863H461.539C462.172 256.863 462.781 257.103 463.243 257.536C463.705 257.968 463.986 258.56 464.029 259.191Z" fill="#9EBCEA"/>
<path d="M426.454 290.778H468.9C469.862 290.778 470.642 289.998 470.642 289.036C470.642 288.074 469.862 287.295 468.9 287.295H426.454C425.492 287.295 424.713 288.074 424.713 289.036C424.713 289.998 425.492 290.778 426.454 290.778Z" fill="#9EBCEA"/>
<path d="M440.718 277.664C442.841 277.664 444.562 275.943 444.562 273.82C444.562 271.698 442.841 269.977 440.718 269.977C438.596 269.977 436.875 271.698 436.875 273.82C436.875 275.943 438.596 277.664 440.718 277.664Z" fill="white"/>
<g opacity="0.15">
<path d="M449.386 229.944C449.366 229.944 449.347 229.942 449.327 229.937L447.37 229.511C447.332 229.502 447.296 229.486 447.265 229.463C447.234 229.439 447.208 229.41 447.189 229.376C447.17 229.342 447.158 229.304 447.155 229.265C447.152 229.226 447.157 229.187 447.17 229.15L448.196 226.253C448.208 226.219 448.227 226.188 448.251 226.161C448.275 226.134 448.304 226.112 448.337 226.097C448.37 226.081 448.405 226.072 448.441 226.07C448.477 226.069 448.513 226.074 448.547 226.086C448.581 226.098 448.612 226.116 448.639 226.141C448.666 226.165 448.688 226.194 448.703 226.226C448.719 226.259 448.728 226.294 448.73 226.33C448.731 226.366 448.726 226.402 448.714 226.436L447.792 229.041L449.445 229.404C449.511 229.418 449.57 229.456 449.61 229.511C449.65 229.566 449.668 229.634 449.661 229.702C449.653 229.769 449.621 229.832 449.571 229.877C449.52 229.922 449.454 229.947 449.386 229.947V229.944Z" fill="black"/>
</g>
<path d="M446.256 294.451C448.721 295.972 452.537 296.691 455.865 296.955L456.051 290.893C454.487 290.849 452.082 290.684 449.726 290.778C448.662 289.91 448.049 289.652 446.957 288.56C445.794 287.397 442.742 286.698 442.166 288.56C441.589 290.421 444.093 293.111 446.256 294.451Z" fill="#E98862"/>
<path d="M71.1425 209.148L65.4839 207.81L58.3896 237.817L64.0482 239.154L71.1425 209.148Z" fill="#F0F6FF"/>
<path d="M59.2611 205.481L56.1196 206.06L60.9782 232.398L64.1197 231.818L59.2611 205.481Z" fill="#C1D8ED"/>
<path d="M59.2597 205.472L56.1216 206.069L56.6745 208.974L59.8126 208.377L59.2597 205.472Z" fill="#DEE8F5"/>
<path d="M68.9843 212.177L58.8042 238.018L60.5488 238.705L70.7289 212.864L68.9843 212.177Z" fill="#0CBC8B"/>
<path d="M71.214 223.482H55.8687V243.095H71.214V223.482Z" fill="#C1D8ED"/>
<path d="M112.178 334.986H117.917V278.522H112.178V334.986Z" fill="#C1D8ED"/>
<path d="M116.901 334.986H122.641V278.522H116.901V334.986Z" fill="#DEE8F5"/>
<path d="M40.6859 334.986H46.4253L46.4253 278.522H40.6859L40.6859 334.986Z" fill="#C1D8ED"/>
<path d="M45.4095 334.986H51.1489L51.1489 278.522H45.4095L45.4095 334.986Z" fill="#DEE8F5"/>
<path d="M96.4354 334.986H102.175V278.522H96.4354V334.986Z" fill="#C1D8ED"/>
<path d="M101.159 334.986H106.898V278.522H101.159V334.986Z" fill="#DEE8F5"/>
<path d="M24.9437 334.986H30.6831L30.6831 278.522H24.9437L24.9437 334.986Z" fill="#C1D8ED"/>
<path d="M29.6673 334.986H35.4067L35.4067 278.522H29.6673L29.6673 334.986Z" fill="#DEE8F5"/>
<path d="M102.139 242.379H24.9434V279.875H102.139V242.379Z" fill="#C1D8ED"/>
<path d="M122.641 242.379H45.4448V279.875H122.641V242.379Z" fill="#DEE8F5"/>
<g opacity="0.53">
<path d="M118.488 247.709H49.5981V274.379H118.488V247.709Z" fill="#F3F5FD"/>
</g>
<path d="M84.0433 264.104C85.733 264.104 87.1027 262.734 87.1027 261.045C87.1027 259.355 85.733 257.985 84.0433 257.985C82.3536 257.985 80.9839 259.355 80.9839 261.045C80.9839 262.734 82.3536 264.104 84.0433 264.104Z" fill="white"/>
</g>
<defs>
<clipPath id="clip0_476_3909">
<rect width="529" height="345.793" fill="white"/>
</clipPath>
</defs>
</svg>
