<svg width="80" height="80" viewBox="0 0 80 80" fill="none" xmlns="http://www.w3.org/2000/svg">
<path fill-rule="evenodd" clip-rule="evenodd" d="M48 10.6667H42.6667V0H37.3333V10.6667H32C23.5131 10.6667 15.3737 14.0381 9.37258 20.0392C3.37142 26.0404 0 34.1797 0 42.6667C0 51.1536 3.37142 59.2929 9.37258 65.2941C15.3737 71.2952 23.5131 74.6667 32 74.6667H48C48.6933 74.6667 49.3867 74.6453 50.0747 74.5973L71.3547 79.92C71.8011 80.0312 72.2687 80.0249 72.712 79.9019C73.1554 79.7789 73.5593 79.5433 73.8846 79.218C74.21 78.8927 74.4456 78.4887 74.5686 78.0454C74.6916 77.6021 74.6978 77.1344 74.5867 76.688L71.5093 64.3733C75.7286 59.8031 78.5245 54.1023 79.555 47.9682C80.5855 41.8342 79.8059 35.5327 77.3117 29.8347C74.8175 24.1366 70.7167 19.289 65.5109 15.8848C60.3051 12.4805 54.22 10.6672 48 10.6667ZM26.6667 34.6667C26.6667 31.1304 28.0714 27.7391 30.5719 25.2386C33.0724 22.7381 36.4638 21.3333 40 21.3333C43.5362 21.3333 46.9276 22.7381 49.4281 25.2386C51.9286 27.7391 53.3333 31.1304 53.3333 34.6667C53.3333 38.2029 51.9286 41.5943 49.4281 44.0948C46.9276 46.5952 43.5362 48 40 48C36.4638 48 33.0724 46.5952 30.5719 44.0948C28.0714 41.5943 26.6667 38.2029 26.6667 34.6667ZM40 64C34.545 64.0082 29.2513 62.1507 24.9973 58.736L28.336 54.576C31.5307 57.136 35.584 58.6667 40 58.6667C44.416 58.6667 48.4693 57.136 51.664 54.576L55.0027 58.736C50.7487 62.1507 45.455 64.0082 40 64Z" fill="#31D0AA"/>
</svg>
