<svg width="50" height="50" viewBox="0 0 50 50" fill="none" xmlns="http://www.w3.org/2000/svg">
<path d="M22.9167 13.5417H20.8333V15.625H22.9167V13.5417ZM25 13.5417H27.0833V15.625H25V13.5417ZM31.25 13.5417H29.1667V15.625H31.25V13.5417ZM20.8333 17.7083H22.9167V19.7917H20.8333V17.7083ZM27.0833 17.7083H25V19.7917H27.0833V17.7083ZM29.1667 17.7083H31.25V19.7917H29.1667V17.7083ZM22.9167 21.875H20.8333V23.9583H22.9167V21.875ZM25 21.875H27.0833V23.9583H25V21.875ZM31.25 21.875H29.1667V23.9583H31.25V21.875ZM20.8333 26.0417H22.9167V28.125H20.8333V26.0417ZM27.0833 26.0417H25V28.125H27.0833V26.0417ZM20.8333 30.2083H22.9167V32.2917H20.8333V30.2083ZM27.0833 30.2083H25V32.2917H27.0833V30.2083ZM20.8333 34.375H22.9167V36.4583H20.8333V34.375ZM27.0833 34.375H25V36.4583H27.0833V34.375ZM20.8333 38.5417H22.9167V40.625H20.8333V38.5417ZM27.0833 38.5417H25V40.625H27.0833V38.5417ZM32.2917 31.25H35.4167V29.1667H32.2917V31.25ZM35.4167 35.4167H32.2917V33.3333H35.4167V35.4167ZM32.2917 39.5833H35.4167V37.5H32.2917V39.5833Z" fill="#219653"/>
<path fill-rule="evenodd" clip-rule="evenodd" d="M17.7083 4.16666L34.375 10.4167V25H38.5417C38.8179 25 39.0829 25.1097 39.2782 25.3051C39.4736 25.5004 39.5833 25.7654 39.5833 26.0417V43.75H40.625C40.9013 43.75 41.1662 43.8597 41.3616 44.0551C41.5569 44.2504 41.6667 44.5154 41.6667 44.7917C41.6667 45.0679 41.5569 45.3329 41.3616 45.5282C41.1662 45.7236 40.9013 45.8333 40.625 45.8333H9.37501C9.09874 45.8333 8.83379 45.7236 8.63844 45.5282C8.44309 45.3329 8.33334 45.0679 8.33334 44.7917C8.33334 44.5154 8.44309 44.2504 8.63844 44.0551C8.83379 43.8597 9.09874 43.75 9.37501 43.75H10.4167V21.875C10.4167 21.5987 10.5264 21.3338 10.7218 21.1384C10.9171 20.9431 11.1821 20.8333 11.4583 20.8333H13.5417V13.5417H15.625V20.8333H17.7083V4.16666ZM19.7917 7.17291L32.2917 11.8604V25H29.1667C28.8904 25 28.6255 25.1097 28.4301 25.3051C28.2348 25.5004 28.125 25.7654 28.125 26.0417V43.75H19.7917V7.17291ZM12.5 22.9167V43.75H17.7083V22.9167H12.5ZM37.5 43.75H35.4167V41.6667H32.2917V43.75H30.2083V27.0833H37.5V43.75Z" fill="#219653"/>
</svg>
