<svg width="51" height="50" viewBox="0 0 51 50" fill="none" xmlns="http://www.w3.org/2000/svg">
<path d="M23.4167 43.7502C20.8125 43.7502 18.3729 43.264 16.0979 42.2918C13.8229 41.3196 11.8354 39.9828 10.1354 38.2814C8.43403 36.58 7.09722 34.5918 6.125 32.3168C5.15278 30.0418 4.66667 27.6029 4.66667 25.0002C4.66667 22.396 5.15278 19.9564 6.125 17.6814C7.09722 15.4064 8.43403 13.4189 10.1354 11.7189C11.8368 10.0175 13.825 8.68072 16.1 7.7085C18.375 6.73627 20.8139 6.25016 23.4167 6.25016C24.1458 6.25016 24.8486 6.29391 25.525 6.38141C26.2014 6.46891 26.8875 6.59877 27.5833 6.771V11.0418C26.8889 10.8335 26.2028 10.6772 25.525 10.5731C24.8472 10.4689 24.1444 10.4168 23.4167 10.4168C19.3194 10.4168 15.8646 11.8231 13.0521 14.6356C10.2396 17.4481 8.83333 20.9029 8.83333 25.0002C8.83333 29.0974 10.2396 32.5522 13.0521 35.3647C15.8646 38.1772 19.3194 39.5835 23.4167 39.5835C27.5139 39.5835 30.9688 38.1772 33.7813 35.3647C36.5938 32.5522 38 29.0974 38 25.0002C38 24.6182 37.9826 24.271 37.9479 23.9585C37.9132 23.646 37.8611 23.2988 37.7917 22.9168H42.0625C42.1319 23.2988 42.1667 23.646 42.1667 23.9585V25.0002C42.1667 27.6043 41.6806 30.0439 40.7083 32.3189C39.7361 34.5939 38.3993 36.5814 36.6979 38.2814C34.9965 39.9828 33.0083 41.3196 30.7333 42.2918C28.4583 43.264 26.0194 43.7502 23.4167 43.7502ZM29.25 33.7502L21.3333 25.8335V14.5835H25.5V24.1668L32.1667 30.8335L29.25 33.7502ZM38 18.7502V12.5002H31.75V8.3335H38V2.0835H42.1667V8.3335H48.4167V12.5002H42.1667V18.7502H38Z" fill="#4AED9E"/>
</svg>
