<svg width="658" height="560" viewBox="0 0 658 560" fill="none" xmlns="http://www.w3.org/2000/svg">
<path d="M545.585 195.849C546.974 185.81 547.701 175.452 547.701 164.86C547.701 73.8104 494.06 0 427.889 0C387.403 0 351.606 27.6324 329.92 69.9399C309.099 45.8877 282.244 31.4019 252.932 31.4019C187.397 31.4019 134.152 103.801 133.136 193.643H133.121C59.5999 193.643 0 275.654 0 376.822C0 477.989 59.5999 560 133.121 560H524.88C598.399 560 658 477.989 658 376.822C658 285.346 609.273 209.536 545.585 195.849Z" fill="#1A1A51"/>
</svg>
