<svg width="25" height="25" viewBox="0 0 25 25" fill="none" xmlns="http://www.w3.org/2000/svg">
<path d="M7.46404 2.88086L7.25847 3.85742H8.90964L8.70403 2.88086H7.46404ZM7.6446 4.73633V5.41992H8.52351V4.73633H7.6446ZM6.14485 6.29883L5.76497 10.8887H6.60212L6.89509 6.98242H13.2694L13.1717 6.29883H6.14485ZM20.9259 7.42188V11.0646C21.2192 11.0872 21.5122 11.1143 21.8048 11.1459V7.42188H20.9259ZM7.71052 7.86133L7.48342 10.8887H7.79104C8.27947 10.8887 8.74534 11.0977 9.20706 11.4084V7.86133H7.71052ZM10.086 7.86133V11.9756L13.8946 12.3995V11.3596L13.3948 7.86133H10.086ZM4.17781 11.7676C3.78718 11.7676 3.0405 12.0976 2.35276 12.6478C1.82014 13.0739 1.31497 13.619 0.949097 14.1696L1.77004 14.3748C2.74758 13.1458 4.25432 12.3535 5.93557 12.3535C8.40598 12.3535 10.5 14.0637 11.0911 16.3574H12.0877C11.6418 15.4424 10.9609 14.3939 10.2164 13.5308C9.76086 13.0025 9.28562 12.545 8.85193 12.2319C8.41829 11.9188 8.02771 11.7676 7.79109 11.7676H4.17781ZM14.7735 11.7705V17.1387H16.3433C16.7869 15.6663 17.6224 14.6596 18.742 14.1507C19.3431 13.8775 20.0109 13.7452 20.7311 13.7319C21.2877 13.7215 21.8759 13.7831 22.4884 13.9047V12.123C21.9271 12.036 21.2635 11.9678 20.5532 11.9178C18.5899 11.7795 16.3461 11.7713 14.7735 11.7705ZM23.3673 12.2985V13.2324H24.0509V12.5776C23.8566 12.4459 23.5672 12.3527 23.3673 12.2985ZM10.874 12.9477C10.8766 12.9507 10.8794 12.9537 10.882 12.9567C11.8584 14.0887 12.7298 15.4758 13.1811 16.6377L13.4136 17.2363H11.2393C11.2514 17.3813 11.2579 17.5278 11.2579 17.6758C11.2579 18.0263 11.2231 18.369 11.1574 18.7012H13.8946V13.2839L10.874 12.9477ZM5.93562 13.2324C3.49026 13.2324 1.49226 15.2305 1.49226 17.6758C1.49226 20.1211 3.49026 22.1191 5.93562 22.1191C8.38093 22.1191 10.379 20.1211 10.379 17.6758C10.379 15.2305 8.38093 13.2324 5.93562 13.2324ZM23.3673 14.1113V14.7949H24.0509V14.1113H23.3673ZM5.93562 14.3066C7.7989 14.3066 9.30476 15.8125 9.30476 17.6758C9.30476 19.5391 7.7989 21.0449 5.93562 21.0449C4.07229 21.0449 2.56648 19.5391 2.56648 17.6758C2.56648 15.8125 4.07229 14.3066 5.93562 14.3066ZM20.9553 14.6128C20.3257 14.6208 19.6189 14.7233 19.1057 14.9508C18.2835 15.3246 17.6568 16.0028 17.2654 17.1387H17.7815C18.4619 16.0294 19.6864 15.2832 21.0723 15.2832C21.5575 15.2833 22.0381 15.3761 22.4884 15.5566V14.8023C21.9422 14.6844 21.4296 14.6206 20.9553 14.6128ZM5.93562 15.1855C4.53972 15.1855 3.44539 16.2799 3.44539 17.6758C3.44539 19.0716 4.53972 20.166 5.93562 20.166C7.33147 20.166 8.42585 19.0716 8.42585 17.6758C8.42585 16.2799 7.33147 15.1855 5.93562 15.1855ZM23.3673 15.6738V16.0483C23.6206 16.2374 23.8501 16.4564 24.0509 16.7005V15.6738H23.3673ZM21.0723 16.1621C19.4369 16.1621 18.0938 17.5053 18.0938 19.1406C18.0938 20.776 19.4369 22.1191 21.0723 22.1191C22.7077 22.1191 24.0509 20.776 24.0509 19.1406C24.0509 17.5053 22.7077 16.1621 21.0723 16.1621ZM21.0723 17.2363C22.1229 17.2363 22.9766 18.09 22.9766 19.1406C22.9766 20.1912 22.1229 21.0449 21.0723 21.0449C20.0217 21.0449 19.168 20.1912 19.168 19.1406C19.168 18.09 20.0217 17.2363 21.0723 17.2363ZM14.7735 18.0176V18.7684L17.2154 19.1753C17.2153 19.1638 17.2149 19.1522 17.2149 19.1406C17.2149 18.7506 17.2744 18.3735 17.3841 18.0176H14.7735ZM21.0723 18.1152C20.4818 18.1152 20.0469 18.55 20.0469 19.1406C20.0469 19.7312 20.4818 20.166 21.0723 20.166C21.6629 20.166 22.0977 19.7312 22.0977 19.1406C22.0977 18.55 21.6629 18.1152 21.0723 18.1152Z" fill="#4AED9E"/>
</svg>
