<svg width="50" height="42" viewBox="0 0 50 42" fill="none" xmlns="http://www.w3.org/2000/svg">
<path d="M41.6667 39.75H35.4167V35.5833H41.6667V39.75ZM41.6667 31.4167H35.4167V27.25H41.6667V31.4167ZM41.6667 23.0833H35.4167V18.9167H41.6667V23.0833ZM50 12.25C49.1667 5.37499 43.3333 0.166656 36.4583 0.166656C32.9167 0.166656 29.375 1.62499 26.875 4.12499C25.4167 5.58332 24.375 7.04166 23.75 8.91666L32.5 14.75H45.8333V41.8333H50V12.25ZM27.7083 10.5833C28.9583 6.83332 32.5 4.33332 36.4583 4.33332C40.4167 4.33332 43.9583 6.83332 45.2083 10.5833H27.7083ZM15.625 8.49999L0 18.9167V41.8333H31.25V18.9167L15.625 8.49999ZM27.0833 37.6667H20.8333V25.1667H10.4167V37.6667H4.16667V21L15.625 13.7083L27.0833 21V37.6667Z" fill="#219653"/>
</svg>
