<svg width="50" height="50" viewBox="0 0 50 50" fill="none" xmlns="http://www.w3.org/2000/svg">
<path d="M28.9094 13.8094C28.8154 13.8095 28.7241 13.7782 28.65 13.7203C27.9583 13.2656 27.1284 13.0692 26.3063 13.1656C26.2498 13.1736 26.1923 13.1703 26.1372 13.1558C26.0821 13.1413 26.0304 13.1159 25.9852 13.0811C25.94 13.0464 25.9022 13.0029 25.874 12.9534C25.8459 12.9038 25.8279 12.8491 25.8211 12.7925C25.8143 12.7359 25.8189 12.6786 25.8347 12.6238C25.8504 12.569 25.8769 12.5178 25.9126 12.4734C25.9483 12.429 25.9926 12.3922 26.0427 12.3651C26.0929 12.338 26.1479 12.3212 26.2047 12.3156C27.2505 12.1824 28.3086 12.4424 29.1734 13.0453C29.2431 13.1004 29.294 13.1758 29.3189 13.261C29.3439 13.3463 29.3417 13.4372 29.3127 13.5211C29.2837 13.6051 29.2293 13.6779 29.157 13.7296C29.0847 13.7812 28.9982 13.8091 28.9094 13.8094ZM17.9734 13.811C17.8844 13.8108 17.7976 13.7828 17.7251 13.7309C17.6527 13.6791 17.5983 13.6059 17.5694 13.5217C17.5405 13.4374 17.5386 13.3462 17.564 13.2609C17.5893 13.1755 17.6407 13.1001 17.7109 13.0453C18.5764 12.4437 19.6339 12.1837 20.6797 12.3156C20.749 12.324 20.8152 12.3491 20.8726 12.3887C20.93 12.4284 20.9769 12.4814 21.0092 12.5433C21.0415 12.6051 21.0582 12.6739 21.058 12.7437C21.0578 12.8135 21.0405 12.8821 21.0078 12.9438C20.9672 13.0178 20.9052 13.078 20.83 13.1164C20.7548 13.1548 20.6698 13.1698 20.5859 13.1594C19.7639 13.061 18.9335 13.257 18.2422 13.7125C18.167 13.776 18.0718 13.8109 17.9734 13.811ZM19.625 14.3594C18.5781 14.3594 17.7031 15.0781 17.4688 16.0469C17.3906 16.3281 17.5938 16.5938 17.8906 16.5938H18.5781C18.5214 16.3826 18.5139 16.1612 18.5563 15.9466C18.5988 15.7321 18.69 15.5302 18.8229 15.3565C18.9558 15.1828 19.1268 15.0421 19.3228 14.945C19.5188 14.848 19.7344 14.7973 19.9531 14.7969C20.1718 14.7973 20.3875 14.848 20.5835 14.945C20.7794 15.0421 20.9505 15.1828 21.0834 15.3565C21.2163 15.5302 21.3075 15.7321 21.3499 15.9466C21.3923 16.1612 21.3849 16.3826 21.3281 16.5938H21.4375C21.6719 16.5938 21.8438 16.3906 21.7969 16.1563C21.6094 15.1406 20.7031 14.3594 19.625 14.3594ZM27.25 14.3594C28.2969 14.3594 29.1719 15.0781 29.4063 16.0469C29.4688 16.3281 29.2656 16.5938 28.9844 16.5938H28.2969C28.3536 16.3826 28.3611 16.1612 28.3187 15.9466C28.2762 15.7321 28.185 15.5302 28.0521 15.3565C27.9192 15.1828 27.7482 15.0421 27.5522 14.945C27.3562 14.848 27.1406 14.7973 26.9219 14.7969C26.125 14.7969 25.5 15.4375 25.5 16.2188C25.5 16.3438 25.5156 16.4688 25.5469 16.5938H25.4375C25.383 16.5951 25.3288 16.5839 25.2792 16.5612C25.2296 16.5385 25.1858 16.5048 25.1512 16.4626C25.1165 16.4204 25.092 16.3709 25.0793 16.3179C25.0667 16.2648 25.0662 16.2095 25.0781 16.1563C25.2656 15.1406 26.1563 14.3594 27.25 14.3594Z" fill="#219653"/>
<path d="M19.9531 15.4063C20.4063 15.4063 20.7656 15.7656 20.7656 16.2188C20.7656 16.3438 20.7188 16.4844 20.6719 16.5938H19.2344C19.1702 16.4715 19.1382 16.335 19.1412 16.197C19.1442 16.059 19.1822 15.924 19.2516 15.8047C19.2727 15.8314 19.299 15.8535 19.3289 15.8697C19.3589 15.8859 19.3918 15.8958 19.4257 15.8988C19.4596 15.9018 19.4938 15.8979 19.5261 15.8872C19.5584 15.8765 19.5882 15.8594 19.6137 15.8368C19.6391 15.8142 19.6597 15.7867 19.6742 15.7558C19.6886 15.725 19.6966 15.6916 19.6977 15.6576C19.6987 15.6235 19.6928 15.5897 19.6803 15.558C19.6678 15.5264 19.649 15.4976 19.625 15.4735C19.7286 15.4287 19.8403 15.4059 19.9531 15.4063ZM26.9219 15.4063C26.8244 15.4059 26.7276 15.4228 26.636 15.4563C26.666 15.4797 26.6904 15.5096 26.7071 15.5438C26.7238 15.5781 26.7325 15.6157 26.7325 15.6538C26.7324 15.6919 26.7237 15.7295 26.7069 15.7637C26.6902 15.7979 26.6658 15.8278 26.6357 15.8512C26.6056 15.8745 26.5705 15.8907 26.5332 15.8984C26.4959 15.9061 26.4573 15.9052 26.4204 15.8958C26.3835 15.8863 26.3492 15.8686 26.3203 15.8438C26.2913 15.8191 26.2683 15.7881 26.2531 15.7531C26.1688 15.8753 26.1195 16.0183 26.1107 16.1665C26.1019 16.3147 26.1339 16.4624 26.2031 16.5938H27.6406C27.7069 16.4703 27.7399 16.3317 27.7362 16.1916C27.7326 16.0516 27.6925 15.9149 27.62 15.795C27.5474 15.6751 27.4449 15.5762 27.3225 15.5081C27.2001 15.4399 27.062 15.4048 26.9219 15.4063ZM22.9375 16.0938L22.1094 18.7656C21.9375 19.3125 22.3438 19.8594 22.9219 19.8594H24.1406C24.7188 19.8594 25.125 19.3125 24.9531 18.7656L24.1406 16.0938C24.1009 15.9653 24.021 15.8529 23.9128 15.7731C23.8045 15.6932 23.6736 15.6502 23.5391 15.6502C23.4046 15.6502 23.2736 15.6932 23.1654 15.7731C23.0571 15.8529 22.9773 15.9653 22.9375 16.0938ZM21.125 20.8125C21.7969 21.1719 22.5938 21.375 23.4375 21.375C24.2813 21.375 25.0781 21.1719 25.75 20.8125C25.9688 20.7031 26.2188 20.9531 26.0781 21.1719C25.5156 22.0313 24.5469 22.6094 23.4375 22.6094C22.3281 22.6094 21.3594 22.0313 20.7969 21.1719C20.6563 20.9531 20.8906 20.6875 21.125 20.8125Z" fill="#219653"/>
<path d="M18.1313 2.80938C20.5999 1.57513 23.4232 1.24566 26.1098 1.87832C28.7963 2.51098 31.1759 4.06571 32.8344 6.27188C33.9636 6.38192 35.0598 6.71448 36.0599 7.25035C37.0599 7.78622 37.9439 8.51481 38.6609 9.39408C39.3779 10.2734 39.9137 11.2859 40.2374 12.3733C40.5611 13.4607 40.6663 14.6014 40.5469 15.7297C41.016 15.8902 41.4231 16.1934 41.7111 16.5969C41.9992 17.0004 42.1537 17.4839 42.1531 17.9797C42.1528 17.3819 42.3778 16.8059 42.7832 16.3666C43.1886 15.9273 43.7447 15.6569 44.3406 15.6094H44.5C45.1198 15.6151 45.7127 15.8639 46.151 16.3022C46.5893 16.7405 46.838 17.3333 46.8438 17.9531V29.0156C46.8425 30.014 46.4454 30.971 45.7395 31.677C45.0335 32.3829 44.0765 32.78 43.0781 32.7813H42.5469V34C42.5469 34.1906 42.5172 34.3797 42.4625 34.5594C43.2351 34.6358 43.9517 34.997 44.4727 35.5726C44.9937 36.1482 45.2819 36.8971 45.2813 37.6734V45.3875C45.2976 46.1792 44.9991 46.9451 44.4513 47.5169C43.9034 48.0888 43.1511 48.4199 42.3594 48.4375H37.2031C37.0359 48.4377 36.869 48.422 36.7047 48.3906H6.25C5.8356 48.3906 5.43817 48.226 5.14515 47.933C4.85212 47.64 4.6875 47.2425 4.6875 46.8281V41.3594C4.68537 37.9641 5.60722 34.6322 7.35425 31.7208C9.10129 28.8095 11.6076 26.4284 14.6047 24.8328C14.3852 24.4135 14.2013 23.9766 14.0547 23.5266C14.0035 23.4771 13.955 23.425 13.9094 23.3703C11.8021 23.1363 9.85562 22.1316 8.44433 20.5492C7.03304 18.9669 6.25652 16.9187 6.26408 14.7984C6.27164 12.6782 7.06274 10.6355 8.48529 9.0633C9.90783 7.49107 11.8614 6.50021 13.9703 6.28126C15.0694 4.81708 16.4939 3.62849 18.1313 2.80938ZM40.2297 17.3047C40.1198 17.2292 39.9922 17.1834 39.8594 17.1719H39.8047C39.5988 17.1739 39.4021 17.2572 39.2573 17.4035C39.1125 17.5497 39.0312 17.7473 39.0313 17.9531V24.9375C39.0362 25.3446 38.8852 25.7382 38.6091 26.0374C38.3331 26.3367 37.953 26.519 37.5469 26.5469H37.4641C37.0497 26.5469 36.6522 26.3823 36.3592 26.0892C36.0662 25.7962 35.9016 25.3988 35.9016 24.9844V22.2422H35.8906V17.9844C35.8906 17.5625 35.5781 17.2031 35.1563 17.1719H35.1125C34.9067 17.1739 34.7099 17.2572 34.5651 17.4035C34.4203 17.5497 34.3391 17.7473 34.3391 17.9531V28.1156L34.4063 28.1719V29.5578C34.491 29.89 34.6519 30.1979 34.8761 30.4571C35.1004 30.7164 35.3819 30.9199 35.6984 31.0516C35.9641 31.1609 36.2469 31.2188 36.5344 31.2188H38.6359V34C38.6368 34.0909 38.6732 34.1779 38.7375 34.2422C38.8018 34.3065 38.8888 34.3429 38.9797 34.3438H40.6422C40.7331 34.3429 40.8201 34.3065 40.8844 34.2422C40.9486 34.1779 40.9851 34.0909 40.9859 34V31.2188H43.0797C43.3692 31.2194 43.6559 31.1628 43.9235 31.0523C44.1911 30.9418 44.4342 30.7796 44.6389 30.5749C44.8436 30.3702 45.0059 30.127 45.1164 29.8595C45.2269 29.5919 45.2834 29.3051 45.2828 29.0156V17.9516C45.2788 17.7456 45.1952 17.5492 45.0496 17.4036C44.9039 17.2579 44.7075 17.1743 44.5016 17.1703L44.5125 17.1719H44.4578C44.2553 17.1893 44.0669 17.2828 43.9307 17.4335C43.7944 17.5843 43.7203 17.7812 43.7234 17.9844V24.9375C43.7284 25.3446 43.5774 25.7382 43.3013 26.0374C43.0253 26.3367 42.6452 26.519 42.2391 26.5469H42.1563C41.7419 26.5469 41.3444 26.3823 41.0514 26.0892C40.7584 25.7962 40.5938 25.3988 40.5938 24.9844V17.9844C40.5959 17.849 40.5638 17.7153 40.5004 17.5956C40.4371 17.476 40.3445 17.3743 40.2313 17.3L40.2297 17.3047ZM36.4625 32.7813C35.7277 32.7678 35.013 32.5397 34.4063 32.125V45.2578H35.2625C35.3031 45.0656 35.3719 44.8828 35.4672 44.7156C35.2951 44.4205 35.2041 44.0851 35.2035 43.7434C35.203 43.4017 35.2929 43.066 35.4641 42.7703C35.2918 42.4731 35.2018 42.1353 35.2034 41.7917C35.2051 41.4481 35.2983 41.1112 35.4734 40.8156C35.2947 40.5038 35.2065 40.1483 35.2188 39.7891C35.2469 38.7766 36.0594 38.0125 37.0031 37.9156C37.0684 37.8988 37.1357 37.8903 37.2031 37.8906H37.4688V35.175C37.2057 34.8404 37.0627 34.4272 37.0625 34.0016V33.7672C36.8754 33.4309 36.6752 33.102 36.4625 32.7813ZM37.3594 39.4531C37.308 39.4636 37.2556 39.4688 37.2031 39.4688C36.95 39.4688 36.7859 39.6656 36.7813 39.8313V39.8406C36.7808 39.909 36.7973 39.9765 36.8292 40.037C36.8611 40.0975 36.9074 40.1492 36.9641 40.1875C37.0691 40.2609 37.1546 40.359 37.2128 40.4731C37.271 40.5873 37.3003 40.7141 37.2979 40.8422C37.2956 40.9703 37.2618 41.0959 37.1995 41.2079C37.1372 41.3199 37.0483 41.4149 36.9406 41.4844C36.8882 41.5183 36.8448 41.5644 36.8143 41.6189C36.7838 41.6734 36.7671 41.7345 36.7656 41.7969C36.7656 41.9375 36.8328 42.0422 36.9266 42.1016C37.0384 42.1708 37.131 42.2671 37.1957 42.3816C37.2604 42.4961 37.2951 42.6251 37.2967 42.7567C37.2982 42.8882 37.2665 43.018 37.2046 43.134C37.1426 43.25 37.0524 43.3485 36.9422 43.4203C36.8892 43.4542 36.8454 43.5005 36.8147 43.5553C36.7839 43.6101 36.767 43.6716 36.7656 43.7344C36.7656 43.875 36.8328 43.9797 36.9266 44.0391C37.0278 44.1019 37.1133 44.1871 37.1766 44.2881C37.2398 44.3891 37.2792 44.5032 37.2915 44.6217C37.3039 44.7403 37.289 44.86 37.2479 44.9719C37.2069 45.0838 37.1408 45.1848 37.0547 45.2672C37.125 45.275 37.1953 45.2875 37.2625 45.3047H42.1563V39.4531H37.3594ZM39.0313 35.9375V37.8906H40.5938V35.9375H39.0313ZM29.6719 45.2578V41.0938C29.6651 40.886 29.5784 40.6889 29.43 40.5434C29.2816 40.3979 29.0828 40.3152 28.875 40.3125H18.0313C17.5938 40.3125 17.25 40.6563 17.25 41.0938V45.2578H29.6719ZM12.5 45.2578V30.2109C11.018 31.6632 9.84076 33.3966 9.0372 35.3095C8.23363 37.2225 7.81993 39.2767 7.82032 41.3516V45.2578H12.5ZM15.7188 27.7875V35.2656C15.7188 35.625 16 35.9063 16.3594 35.9063H30.5313C30.8906 35.9063 31.1719 35.625 31.1719 35.2656V27.8125C30.6858 27.5346 30.1851 27.2832 29.6719 27.0594V32.9219C29.6719 33.6406 28.875 34.0469 28.2969 33.6406L25.2172 31.4781L24.3578 32.2438C24.0972 32.4737 23.7616 32.6005 23.4141 32.6005C23.0665 32.6005 22.7309 32.4737 22.4703 32.2438L22.4641 32.2391L21.6188 31.4844L18.5469 33.6406C18.4167 33.7313 18.2643 33.7849 18.1061 33.7956C17.9478 33.8064 17.7896 33.7739 17.6484 33.7017C17.5071 33.6295 17.3882 33.5202 17.3043 33.3856C17.2203 33.251 17.1746 33.0961 17.1719 32.9375V27.0609C16.6734 27.2781 16.1875 27.5203 15.7188 27.7875ZM30.1688 21.9141C30.2484 21.6484 30.3094 21.375 30.3469 21.0938L30.5281 18.4063L31.2031 18.3547C31.6417 18.3217 32.0537 18.1316 32.3635 17.8194C32.6733 17.5072 32.8602 17.0937 32.8898 16.6549C32.9194 16.216 32.7898 15.7812 32.5248 15.4302C32.2598 15.0791 31.8771 14.8354 31.4469 14.7438L30.7688 14.5984L30.8453 13.7641C30.8547 13.4014 30.7788 13.0415 30.6239 12.7134C30.4689 12.3854 30.2392 12.0982 29.9531 11.875H27.3953C26.7742 11.8738 26.1639 11.7124 25.6234 11.4063H18.4531C17.1281 11.4063 16.1 12.5313 16.2156 13.8375L16.2172 13.8563L16.2188 13.8922L16.2656 14.6266L15.5359 14.7172C15.074 14.7748 14.6514 15.0065 14.3545 15.365C14.0575 15.7235 13.9084 16.1817 13.9377 16.6463C13.967 17.1109 14.1725 17.5468 14.5121 17.8652C14.8518 18.1835 15.3001 18.3603 15.7656 18.3594H15.7719L16.5063 18.3563L16.6844 21.0953C16.862 22.3866 17.5016 23.5698 18.4847 24.4256C19.4678 25.2814 20.7278 25.752 22.0313 25.75H25C26.1124 25.749 27.1974 25.4048 28.1071 24.7645C29.0167 24.1241 29.7067 23.2188 30.0828 22.1719L30.0844 22.1688C30.1051 22.0816 30.1334 21.9964 30.1688 21.9141ZM23.4219 28.375C24.3563 28.375 25.1219 27.9234 25.5313 27.2922C25.3545 27.3057 25.1773 27.3125 25 27.3125H22.0313C21.7813 27.3125 21.5328 27.2984 21.2891 27.2734C21.6922 27.9141 22.4641 28.375 23.4219 28.375ZM23.4219 29.9375C22.9453 29.9375 22.4844 29.8594 22.0516 29.7141C22.1875 29.875 22.3328 30.0266 22.4906 30.1672L23.4141 30.9922L24.3375 30.1688C24.4938 30.0281 24.6375 29.8781 24.7719 29.7188C24.3453 29.8594 23.8906 29.9375 23.4219 29.9375Z" fill="#219653"/>
</svg>
