<svg width="51" height="50" viewBox="0 0 51 50" fill="none" xmlns="http://www.w3.org/2000/svg">
<path d="M26.5417 47.9165C25.6736 47.9165 24.9354 47.6214 24.3271 47.0311C23.7187 46.4408 23.4153 45.7116 23.4167 44.8436C23.4167 44.4269 23.4951 44.0276 23.6521 43.6457C23.809 43.2637 24.043 42.9339 24.3542 42.6561L26.5417 40.6248L28.7292 42.6561C29.0417 42.9339 29.2764 43.2637 29.4333 43.6457C29.5903 44.0276 29.668 44.4269 29.6667 44.8436C29.6667 45.7116 29.3632 46.4408 28.7562 47.0311C28.1493 47.6214 27.4111 47.9165 26.5417 47.9165ZM19.3542 44.7915L17.1667 42.604L23.3125 36.4582L25.5 38.6457L19.3542 44.7915ZM32.7917 41.6665L29.6667 38.5415L32.7917 35.4165L35.9167 38.5415L32.7917 41.6665ZM14.0417 41.6665L10.9167 38.5415L14.0417 35.4165L17.1667 38.5415L14.0417 41.6665ZM16.125 33.3332C12.9653 33.3332 10.2653 32.213 8.02499 29.9728C5.78471 27.7325 4.66527 25.0332 4.66666 21.8748C4.66666 18.9929 5.62152 16.4755 7.53124 14.3228C9.44096 12.17 11.8021 10.9026 14.6146 10.5207C15.7257 8.54151 17.2451 6.98734 19.1729 5.85817C21.1007 4.72901 23.2097 4.16512 25.5 4.16651C28.625 4.16651 31.3424 5.16512 33.6521 7.16234C35.9618 9.15956 37.359 11.6505 37.8437 14.6353C40.2396 14.8436 42.2535 15.8332 43.8854 17.604C45.5173 19.3748 46.3333 21.4929 46.3333 23.9582C46.3333 26.5623 45.4222 28.7762 43.6 30.5998C41.7778 32.4234 39.5639 33.3346 36.9583 33.3332H16.125Z" fill="#4AED9E"/>
</svg>
